<svg xmlns="http://www.w3.org/2000/svg" xmlns:xlink="http://www.w3.org/1999/xlink" width="1400" zoomAndPan="magnify" viewBox="0 0 1050 374.999991" height="500" preserveAspectRatio="xMidYMid meet" version="1.0"><defs><g/></defs><g fill="rgb(100%, 100%, 100%)" fill-opacity="1"><g transform="translate(0.164152, 208.641655)"><g><path d="M 157.214844 -154.972656 L 122.179688 -154.972656 L 122.179688 -89.839844 L 54.351562 -89.839844 L 54.351562 -154.972656 L 19.089844 -154.972656 L 19.089844 0 L 54.351562 0 L 54.351562 -62.214844 L 122.179688 -62.214844 L 122.179688 0 L 157.214844 0 Z M 157.214844 -154.972656 "/></g></g></g><g fill="rgb(100%, 100%, 100%)" fill-opacity="1"><g transform="translate(170.816108, 208.641655)"><g><path d="M 134.082031 -27.625 L 54.351562 -27.625 L 54.351562 -64.007812 L 126.671875 -64.007812 L 126.671875 -91.410156 L 54.351562 -91.410156 L 54.351562 -127.570312 L 131.835938 -127.570312 L 131.835938 -154.972656 L 19.089844 -154.972656 L 19.089844 0 L 134.082031 0 Z M 134.082031 -27.625 "/></g></g></g><g fill="rgb(100%, 100%, 100%)" fill-opacity="1"><g transform="translate(311.379414, 208.641655)"><g><path d="M 134.082031 -29.648438 L 54.351562 -29.648438 L 54.351562 -154.972656 L 19.089844 -154.972656 L 19.089844 0 L 134.082031 0 Z M 134.082031 -29.648438 "/></g></g></g><g fill="rgb(100%, 100%, 100%)" fill-opacity="1"><g transform="translate(449.472774, 208.641655)"><g><path d="M 98.148438 -153.847656 C 90.289062 -154.746094 84.222656 -154.972656 75.015625 -154.972656 L 19.089844 -154.972656 L 19.089844 0 L 54.351562 0 L 54.351562 -56.597656 L 75.015625 -56.597656 C 84.222656 -56.597656 90.289062 -56.824219 98.148438 -57.722656 C 120.609375 -60.417969 140.371094 -76.363281 140.371094 -105.785156 C 140.371094 -135.207031 121.28125 -151.152344 98.148438 -153.847656 Z M 86.019531 -84.671875 C 82.875 -84.222656 78.609375 -84.222656 73.667969 -84.222656 L 54.351562 -84.222656 L 54.351562 -127.34375 L 73.667969 -127.34375 C 78.609375 -127.34375 82.875 -127.34375 86.019531 -126.894531 C 96.574219 -125.546875 103.539062 -119.035156 103.539062 -105.785156 C 103.539062 -92.535156 96.574219 -86.019531 86.019531 -84.671875 Z M 86.019531 -84.671875 "/></g></g></g><g fill="rgb(100%, 100%, 100%)" fill-opacity="1"><g transform="translate(591.607908, 208.641655)"><g/></g></g><g fill="rgb(100%, 100%, 100%)" fill-opacity="1"><g transform="translate(633.372738, 208.641655)"><g><path d="M 54.351562 -127.570312 L 131.835938 -127.570312 L 131.835938 -154.972656 L 19.089844 -154.972656 L 19.089844 0 L 54.351562 0 L 54.351562 -64.007812 L 124.425781 -64.007812 L 124.425781 -91.410156 L 54.351562 -91.410156 Z M 54.351562 -127.570312 "/></g></g></g><g fill="rgb(100%, 100%, 100%)" fill-opacity="1"><g transform="translate(768.771583, 208.641655)"><g><path d="M 134.082031 -27.625 L 54.351562 -27.625 L 54.351562 -64.007812 L 126.671875 -64.007812 L 126.671875 -91.410156 L 54.351562 -91.410156 L 54.351562 -127.570312 L 131.835938 -127.570312 L 131.835938 -154.972656 L 19.089844 -154.972656 L 19.089844 0 L 134.082031 0 Z M 134.082031 -27.625 "/></g></g></g><g fill="rgb(100%, 100%, 100%)" fill-opacity="1"><g transform="translate(909.33489, 208.641655)"><g><path d="M 134.082031 -27.625 L 54.351562 -27.625 L 54.351562 -64.007812 L 126.671875 -64.007812 L 126.671875 -91.410156 L 54.351562 -91.410156 L 54.351562 -127.570312 L 131.835938 -127.570312 L 131.835938 -154.972656 L 19.089844 -154.972656 L 19.089844 0 L 134.082031 0 Z M 134.082031 -27.625 "/></g></g></g></svg>